<?xml version="1.0" standalone="no"?><!DOCTYPE svg PUBLIC "-//W3C//DTD SVG 1.1//EN" "http://www.w3.org/Graphics/SVG/1.1/DTD/svg11.dtd"><svg class="icon" width="200px" height="200.00px" viewBox="0 0 1024 1024" version="1.1" xmlns="http://www.w3.org/2000/svg"><path fill="#515151" d="M518.02112 25.7024c143.99488 0 261.09952 117.08416 261.09952 261.09952 0 143.99488-117.10464 261.09952-261.09952 261.09952s-261.09952-117.08416-261.09952-261.09952c0.02048-144.01536 117.12512-261.09952 261.09952-261.09952z m214.67136 506.6752c39.56736 11.91936 74.9568 27.72992 106.00448 47.22688 72.06912 45.28128 158.0032 134.41024 158.0032 301.85472V983.04H39.36256v-101.5808c0-167.46496 85.93408-256.7168 157.98272-301.85472 31.0272-19.49696 66.4576-35.30752 105.984-47.22688 57.38496 50.23744 132.608 80.6912 214.69184 80.6912s157.32736-30.45376 214.67136-80.6912z m0 0" /></svg>